HIERARCHY
ROOT joint_Root
{
	OFFSET 0.0 0.0 0.0
	CHANNELS 6 Xposition Yposition Zposition Zrotation Xrotation Yrotation 
	JOINT Hips
	{
		OFFSET -0.726466 93.3139 -2.00062
		CHANNELS 6 Xposition Yposition Zposition Zrotation Xrotation Yrotation 
		JOINT Spine
		{
			OFFSET 15.7357 0.0 0.0
			CHANNELS 6 Xposition Yposition Zposition Zrotation Xrotation Yrotation 
			JOINT Chest
			{
				OFFSET 8.98455 -0.406207 0.0
				CHANNELS 6 Xposition Yposition Zposition Zrotation Xrotation Yrotation 
				JOINT Neck
				{
					OFFSET 16.3773 0.0 0.0
					CHANNELS 6 Xposition Yposition Zposition Zrotation Xrotation Yrotation 
					JOINT Head
					{
						OFFSET 6.45672 0.0 0.0
						CHANNELS 6 Xposition Yposition Zposition Zrotation Xrotation Yrotation 
						End Site
						{
							OFFSET 0.0 0.0 0.0
						}
					}
				}
				JOINT Shoulder_L
				{
					OFFSET 12.9942 -0.242716 4.98039
					CHANNELS 6 Xposition Yposition Zposition Zrotation Xrotation Yrotation 
					JOINT UpperArm_L
					{
						OFFSET 5.34809 0.0 0.0
						CHANNELS 6 Xposition Yposition Zposition Zrotation Xrotation Yrotation 
						JOINT LowerArm_L
						{
							OFFSET 24.3286 1.87007e-05 0.0
							CHANNELS 6 Xposition Yposition Zposition Zrotation Xrotation Yrotation 
							JOINT Hand_L
							{
								OFFSET 22.2916 0.0 0.0
								CHANNELS 6 Xposition Yposition Zposition Zrotation Xrotation Yrotation 
								End Site
								{
									OFFSET 0.0 0.0 0.0
								}
							}
						}
					}
				}
				JOINT Shoulder_R
				{
					OFFSET 12.9945 -0.242716 -4.98039
					CHANNELS 6 Xposition Yposition Zposition Zrotation Xrotation Yrotation 
					JOINT UpperArm_R
					{
						OFFSET -5.34813 0.0 0.0
						CHANNELS 6 Xposition Yposition Zposition Zrotation Xrotation Yrotation 
						JOINT LowerArm_R
						{
							OFFSET -24.3289 0.000322201 0.0
							CHANNELS 6 Xposition Yposition Zposition Zrotation Xrotation Yrotation 
							JOINT Hand_R
							{
								OFFSET -22.2915 -0.000108084 0.0
								CHANNELS 6 Xposition Yposition Zposition Zrotation Xrotation Yrotation 
								End Site
								{
									OFFSET 0.0 0.0 0.0
								}
							}
						}
					}
				}
			}
		}
		JOINT UpperLeg_L
		{
			OFFSET -2.19248 -6.46944 0.0
			CHANNELS 6 Xposition Yposition Zposition Zrotation Xrotation Yrotation 
			JOINT LowerLeg_L
			{
				OFFSET 39.0811 0.0 -1.23785e-05
				CHANNELS 6 Xposition Yposition Zposition Zrotation Xrotation Yrotation 
				JOINT Foot_L
				{
					OFFSET 40.9854 0.0 -1.26872e-05
					CHANNELS 6 Xposition Yposition Zposition Zrotation Xrotation Yrotation 
					JOINT Toes_L
					{
						OFFSET 11.7543 0.0 0.0
						CHANNELS 6 Xposition Yposition Zposition Zrotation Xrotation Yrotation 
						End Site
						{
							OFFSET 0.0 0.0 0.0
						}
					}
				}
			}
		}
		JOINT UpperLeg_R
		{
			OFFSET -2.19251 6.46944 0.0
			CHANNELS 6 Xposition Yposition Zposition Zrotation Xrotation Yrotation 
			JOINT LowerLeg_R
			{
				OFFSET -39.0811 -0.00228153 -0.0401928
				CHANNELS 6 Xposition Yposition Zposition Zrotation Xrotation Yrotation 
				JOINT Foot_R
				{
					OFFSET -40.9854 0.0 0.0
					CHANNELS 6 Xposition Yposition Zposition Zrotation Xrotation Yrotation 
					JOINT Toes_R
					{
						OFFSET -11.7543 0.0 0.0
						CHANNELS 6 Xposition Yposition Zposition Zrotation Xrotation Yrotation 
						End Site
						{
							OFFSET 0.0 0.0 0.0
						}
					}
				}
			}
		}
	}
}
MOTION
Frames:	4
Frame Time:	0.0333333
0.000000 0.000000 0.000000 0.000000 0.000000 -0.000000 -0.790459 92.064100 0.675004 88.164200 -0.042450 5.408080 15.735700 0.000005 -0.000001 87.587500 86.415500 -87.459700 8.984550 -0.406207 -0.000000 -0.603069 -0.311032 0.253867 16.377300 -0.000001 -0.000001 5.364200 -3.407430 1.003720 6.456720 -0.000001 -0.000000 5.532160 -3.245630 0.711299 12.994200 -0.242716 4.980390 -88.098800 -5.562180 -71.095300 5.348090 -0.000007 -0.000001 -64.805600 -30.637000 -63.688700 24.328600 0.000019 0.000005 7.983910 -0.271700 -91.928600 22.291600 -0.000001 0.000005 43.128800 5.614390 -12.271800 12.994500 -0.242716 -4.980390 89.411300 1.614990 -69.968300 -5.348130 -0.000001 -0.000004 -56.635900 -29.654100 -69.986900 -24.328900 0.000322 -0.000009 15.700500 1.141450 -85.945300 -22.291500 -0.000108 -0.000004 41.675100 5.266310 0.944207 -2.192480 -6.469440 -0.000000 -175.261000 -6.368390 -0.703622 39.081100 -0.000007 -0.000012 -0.123216 0.282442 23.569500 40.985400 -0.000006 -0.000013 -0.185648 3.921560 -67.674100 11.754300 -0.000000 0.000003 -0.000052 -0.000589 -16.600400 -2.192510 6.469440 -0.000001 178.808000 14.017400 -178.192000 -39.081100 -0.002282 -0.040193 -0.067184 0.190417 20.317900 -40.985400 0.000008 0.000006 2.597870 7.618720 -66.992300 -11.754300 -0.000006 -0.000006 -0.006951 -0.079240 -19.798900
0.000000 0.000000 0.000000 0.000000 0.000000 -0.000000 -0.802821 92.050300 0.718135 88.199200 0.004948 5.516720 15.735700 0.000005 -0.000001 87.739700 86.425700 -87.634700 8.984550 -0.406207 -0.000000 -0.622731 -0.289558 0.208336 16.377300 -0.000001 -0.000001 5.290070 -3.390780 1.011680 6.456720 -0.000001 -0.000000 5.535300 -3.242380 0.673240 12.994200 -0.242716 4.980390 -88.091200 -5.583750 -71.092700 5.348090 -0.000007 -0.000001 -59.603500 -28.967400 -62.567900 24.328600 0.000019 0.000005 11.717800 -0.758974 -93.649500 22.291600 -0.000001 0.000005 41.902800 5.662470 -16.466500 12.994500 -0.242716 -4.980390 89.382500 1.695810 -69.987200 -5.348130 -0.000001 -0.000004 -50.901700 -28.662600 -68.609300 -24.328900 0.000322 -0.000009 18.155200 0.574676 -88.246900 -22.291500 -0.000108 -0.000004 39.950400 5.459760 -5.048230 -2.192480 -6.469440 -0.000000 -175.285000 -6.301180 -0.580400 39.081100 -0.000007 -0.000012 -0.122129 0.279525 23.601400 40.985400 -0.000006 -0.000013 -0.194776 3.901720 -67.723200 11.754300 -0.000000 0.000003 -0.000047 -0.000537 -16.598400 -2.192510 6.469440 -0.000001 178.723000 14.054000 -178.068000 -39.081100 -0.002282 -0.040193 -0.069861 0.196932 20.385500 -40.985400 0.000008 0.000006 2.530150 7.640720 -67.058200 -11.754300 -0.000006 -0.000006 -0.007061 -0.080186 -19.837500
0.000000 0.000000 0.000000 0.000000 0.000000 -0.000000 -0.815197 92.051200 0.741147 88.188900 -0.024972 5.525520 15.735700 0.000005 -0.000001 87.842400 86.460600 -87.748700 8.984550 -0.406207 -0.000000 -0.692102 -0.273360 0.185814 16.377300 -0.000001 -0.000001 5.097770 -3.377380 0.957765 6.456720 -0.000001 -0.000000 5.576390 -3.226160 0.696111 12.994200 -0.242716 4.980390 -88.082300 -5.607800 -71.086100 5.348090 -0.000007 -0.000001 -55.132800 -27.488600 -61.700900 24.328600 0.000019 0.000005 15.407200 -1.493240 -95.398400 22.291600 -0.000001 0.000005 40.748000 5.681070 -20.522100 12.994500 -0.242716 -4.980390 89.340900 1.825600 -70.144000 -5.348130 -0.000001 -0.000004 -45.743900 -27.702400 -67.448100 -24.328900 0.000322 -0.000009 20.967200 -0.148676 -90.385900 -22.291500 -0.000108 -0.000004 38.653200 5.588930 -10.776900 -2.192480 -6.469440 -0.000000 -175.262000 -6.300920 -0.538547 39.081100 -0.000007 -0.000012 -0.124099 0.284331 23.579500 40.985400 -0.000006 -0.000013 -0.211873 3.879700 -67.731400 11.754300 -0.000000 0.000003 -0.000052 -0.000590 -16.600400 -2.192510 6.469440 -0.000001 178.746000 14.038200 -178.039000 -39.081100 -0.002282 -0.040193 -0.067377 0.190380 20.372400 -40.985400 0.000008 0.000006 2.622770 7.644580 -67.081100 -11.754300 -0.000006 -0.000006 -0.006857 -0.078431 -19.765900
0.000000 0.000000 0.000000 0.000000 0.000000 -0.000000 -0.833498 92.052100 0.731352 88.167100 -0.089743 5.499010 15.735700 0.000005 -0.000001 88.203900 86.481400 -88.117100 8.984550 -0.406207 -0.000000 -0.732172 -0.226954 0.171966 16.377300 -0.000001 -0.000001 4.921680 -3.383910 0.922384 6.456720 -0.000001 -0.000000 5.317200 -3.254560 0.688429 12.994200 -0.242716 4.980390 -88.081400 -5.635860 -71.165100 5.348090 -0.000007 -0.000001 -51.698000 -26.383600 -61.016700 24.328600 0.000019 0.000005 19.220500 -2.401440 -96.851000 22.291600 -0.000001 0.000005 40.671200 5.670400 -24.839900 12.994500 -0.242716 -4.980390 89.332100 1.865880 -70.300800 -5.348130 -0.000001 -0.000004 -42.241800 -26.926300 -66.756300 -24.328900 0.000322 -0.000009 24.603800 -0.967271 -92.110500 -22.291500 -0.000108 -0.000004 37.418200 5.651140 -15.171800 -2.192480 -6.469440 -0.000000 -175.253000 -6.244930 -0.570942 39.081100 -0.000007 -0.000012 -0.122726 0.281031 23.591000 40.985400 -0.000006 -0.000013 -0.251717 3.740270 -67.733400 11.754300 -0.000000 0.000003 -0.000062 -0.000677 -16.603800 -2.192510 6.469440 -0.000001 178.800000 14.025400 -178.074000 -39.081100 -0.002282 -0.040193 -0.066778 0.188871 20.362400 -40.985400 0.000008 0.000006 2.637900 7.632570 -67.066400 -11.754300 -0.000006 -0.000006 -0.006890 -0.078715 -19.777400
